<mxfile host="app.diagrams.net" modified="2022-11-29T11:50:48.962Z" agent="5.0 (Windows NT 10.0; Win64; x64) AppleWebKit/537.36 (KHTML, like Gecko) Chrome/107.0.0.0 Safari/537.36 Edg/107.0.1418.56" etag="aMmsgzkk7tzfzx8lfpc4" version="20.6.0" type="github" pages="2">
  <diagram id="2iuwXlNWKjLyPHQGqsBC" name="Page-1">
    <mxGraphModel dx="767" dy="1240" grid="0" gridSize="10" guides="1" tooltips="1" connect="1" arrows="1" fold="1" page="1" pageScale="1" pageWidth="850" pageHeight="1100" math="0" shadow="0">
      <root>
        <mxCell id="0" />
        <mxCell id="1" parent="0" />
        <mxCell id="37whbqH-QApnZtkLAOa3-1" value="" style="rounded=0;whiteSpace=wrap;html=1;fillColor=#E0AE58;" parent="1" vertex="1">
          <mxGeometry x="300" y="260" width="220" height="130" as="geometry" />
        </mxCell>
        <mxCell id="37whbqH-QApnZtkLAOa3-10" value="" style="rounded=0;whiteSpace=wrap;html=1;" parent="1" vertex="1">
          <mxGeometry x="320" y="280" width="180" height="90" as="geometry" />
        </mxCell>
        <mxCell id="37whbqH-QApnZtkLAOa3-8" value="" style="rounded=0;whiteSpace=wrap;html=1;rotation=35;" parent="1" vertex="1">
          <mxGeometry x="500" y="421.47" width="160" height="20" as="geometry" />
        </mxCell>
        <mxCell id="37whbqH-QApnZtkLAOa3-5" value="" style="ellipse;whiteSpace=wrap;html=1;aspect=fixed;" parent="1" vertex="1">
          <mxGeometry x="500" y="370" width="40" height="40" as="geometry" />
        </mxCell>
        <mxCell id="37whbqH-QApnZtkLAOa3-6" value="" style="ellipse;whiteSpace=wrap;html=1;aspect=fixed;" parent="1" vertex="1">
          <mxGeometry x="570" y="420" width="40" height="40" as="geometry" />
        </mxCell>
        <mxCell id="37whbqH-QApnZtkLAOa3-9" value="" style="ellipse;whiteSpace=wrap;html=1;aspect=fixed;" parent="1" vertex="1">
          <mxGeometry x="639" y="469" width="40" height="40" as="geometry" />
        </mxCell>
        <mxCell id="37whbqH-QApnZtkLAOa3-24" value="" style="rounded=0;whiteSpace=wrap;html=1;rotation=-40;" parent="1" vertex="1">
          <mxGeometry x="499" y="208" width="160" height="20" as="geometry" />
        </mxCell>
        <mxCell id="37whbqH-QApnZtkLAOa3-25" value="" style="ellipse;whiteSpace=wrap;html=1;aspect=fixed;rotation=-75;" parent="1" vertex="1">
          <mxGeometry x="505" y="245" width="40" height="40" as="geometry" />
        </mxCell>
        <mxCell id="37whbqH-QApnZtkLAOa3-26" value="" style="ellipse;whiteSpace=wrap;html=1;aspect=fixed;rotation=-75;" parent="1" vertex="1">
          <mxGeometry x="570" y="191" width="40" height="40" as="geometry" />
        </mxCell>
        <mxCell id="37whbqH-QApnZtkLAOa3-27" value="" style="ellipse;whiteSpace=wrap;html=1;aspect=fixed;rotation=-75;" parent="1" vertex="1">
          <mxGeometry x="634" y="136" width="40" height="40" as="geometry" />
        </mxCell>
        <mxCell id="37whbqH-QApnZtkLAOa3-13" value="" style="rounded=0;whiteSpace=wrap;html=1;rotation=35;" parent="1" vertex="1">
          <mxGeometry x="130" y="192.47000000000003" width="160" height="20" as="geometry" />
        </mxCell>
        <mxCell id="37whbqH-QApnZtkLAOa3-14" value="" style="ellipse;whiteSpace=wrap;html=1;aspect=fixed;" parent="1" vertex="1">
          <mxGeometry x="130" y="141" width="40" height="40" as="geometry" />
        </mxCell>
        <mxCell id="37whbqH-QApnZtkLAOa3-15" value="" style="ellipse;whiteSpace=wrap;html=1;aspect=fixed;" parent="1" vertex="1">
          <mxGeometry x="200" y="191" width="40" height="40" as="geometry" />
        </mxCell>
        <mxCell id="37whbqH-QApnZtkLAOa3-16" value="" style="ellipse;whiteSpace=wrap;html=1;aspect=fixed;" parent="1" vertex="1">
          <mxGeometry x="269" y="240" width="40" height="40" as="geometry" />
        </mxCell>
        <mxCell id="37whbqH-QApnZtkLAOa3-19" value="" style="rounded=0;whiteSpace=wrap;html=1;rotation=-40;" parent="1" vertex="1">
          <mxGeometry x="149" y="447" width="160" height="20" as="geometry" />
        </mxCell>
        <mxCell id="37whbqH-QApnZtkLAOa3-20" value="" style="ellipse;whiteSpace=wrap;html=1;aspect=fixed;rotation=-75;" parent="1" vertex="1">
          <mxGeometry x="155" y="484" width="40" height="40" as="geometry" />
        </mxCell>
        <mxCell id="37whbqH-QApnZtkLAOa3-21" value="" style="ellipse;whiteSpace=wrap;html=1;aspect=fixed;rotation=-75;fillColor=#E0AE58;" parent="1" vertex="1">
          <mxGeometry x="220" y="430" width="40" height="40" as="geometry" />
        </mxCell>
        <mxCell id="37whbqH-QApnZtkLAOa3-22" value="" style="ellipse;whiteSpace=wrap;html=1;aspect=fixed;rotation=-75;fillColor=#E0AE58;" parent="1" vertex="1">
          <mxGeometry x="284" y="375" width="40" height="40" as="geometry" />
        </mxCell>
        <mxCell id="37whbqH-QApnZtkLAOa3-29" value="" style="ellipse;whiteSpace=wrap;html=1;aspect=fixed;" parent="1" vertex="1">
          <mxGeometry x="130" y="141" width="40" height="40" as="geometry" />
        </mxCell>
        <mxCell id="37whbqH-QApnZtkLAOa3-30" value="" style="ellipse;whiteSpace=wrap;html=1;aspect=fixed;" parent="1" vertex="1">
          <mxGeometry x="200" y="191" width="40" height="40" as="geometry" />
        </mxCell>
        <mxCell id="37whbqH-QApnZtkLAOa3-31" value="" style="ellipse;whiteSpace=wrap;html=1;aspect=fixed;" parent="1" vertex="1">
          <mxGeometry x="269" y="240" width="40" height="40" as="geometry" />
        </mxCell>
        <mxCell id="37whbqH-QApnZtkLAOa3-32" value="" style="ellipse;whiteSpace=wrap;html=1;aspect=fixed;rotation=-75;" parent="1" vertex="1">
          <mxGeometry x="505" y="245" width="40" height="40" as="geometry" />
        </mxCell>
        <mxCell id="37whbqH-QApnZtkLAOa3-33" value="" style="ellipse;whiteSpace=wrap;html=1;aspect=fixed;rotation=-75;" parent="1" vertex="1">
          <mxGeometry x="570" y="191" width="40" height="40" as="geometry" />
        </mxCell>
        <mxCell id="37whbqH-QApnZtkLAOa3-34" value="" style="ellipse;whiteSpace=wrap;html=1;aspect=fixed;rotation=-75;" parent="1" vertex="1">
          <mxGeometry x="634" y="136" width="40" height="40" as="geometry" />
        </mxCell>
        <mxCell id="37whbqH-QApnZtkLAOa3-35" value="" style="ellipse;whiteSpace=wrap;html=1;aspect=fixed;" parent="1" vertex="1">
          <mxGeometry x="500" y="370" width="40" height="40" as="geometry" />
        </mxCell>
        <mxCell id="37whbqH-QApnZtkLAOa3-36" value="" style="ellipse;whiteSpace=wrap;html=1;aspect=fixed;" parent="1" vertex="1">
          <mxGeometry x="570" y="420" width="40" height="40" as="geometry" />
        </mxCell>
        <mxCell id="37whbqH-QApnZtkLAOa3-37" value="" style="ellipse;whiteSpace=wrap;html=1;aspect=fixed;" parent="1" vertex="1">
          <mxGeometry x="639" y="469" width="40" height="40" as="geometry" />
        </mxCell>
        <mxCell id="37whbqH-QApnZtkLAOa3-38" value="" style="ellipse;whiteSpace=wrap;html=1;aspect=fixed;rotation=-75;" parent="1" vertex="1">
          <mxGeometry x="155" y="484" width="40" height="40" as="geometry" />
        </mxCell>
        <mxCell id="37whbqH-QApnZtkLAOa3-39" value="" style="ellipse;whiteSpace=wrap;html=1;aspect=fixed;fillColor=#E0AE58;" parent="1" vertex="1">
          <mxGeometry x="130" y="141" width="40" height="40" as="geometry" />
        </mxCell>
        <mxCell id="37whbqH-QApnZtkLAOa3-40" value="" style="ellipse;whiteSpace=wrap;html=1;aspect=fixed;fillColor=#E0AE58;" parent="1" vertex="1">
          <mxGeometry x="200" y="191" width="40" height="40" as="geometry" />
        </mxCell>
        <mxCell id="37whbqH-QApnZtkLAOa3-41" value="" style="ellipse;whiteSpace=wrap;html=1;aspect=fixed;fillColor=#E0AE58;" parent="1" vertex="1">
          <mxGeometry x="269" y="240" width="40" height="40" as="geometry" />
        </mxCell>
        <mxCell id="37whbqH-QApnZtkLAOa3-42" value="" style="ellipse;whiteSpace=wrap;html=1;aspect=fixed;rotation=-75;fillColor=#E0AE58;" parent="1" vertex="1">
          <mxGeometry x="505" y="245" width="40" height="40" as="geometry" />
        </mxCell>
        <mxCell id="37whbqH-QApnZtkLAOa3-43" value="" style="ellipse;whiteSpace=wrap;html=1;aspect=fixed;rotation=-75;fillColor=#E0AE58;" parent="1" vertex="1">
          <mxGeometry x="570" y="191" width="40" height="40" as="geometry" />
        </mxCell>
        <mxCell id="37whbqH-QApnZtkLAOa3-44" value="" style="ellipse;whiteSpace=wrap;html=1;aspect=fixed;rotation=-75;fillColor=#E0AE58;" parent="1" vertex="1">
          <mxGeometry x="634" y="136" width="40" height="40" as="geometry" />
        </mxCell>
        <mxCell id="37whbqH-QApnZtkLAOa3-45" value="" style="ellipse;whiteSpace=wrap;html=1;aspect=fixed;fillColor=#E0AE58;" parent="1" vertex="1">
          <mxGeometry x="500" y="370" width="40" height="40" as="geometry" />
        </mxCell>
        <mxCell id="37whbqH-QApnZtkLAOa3-46" value="" style="ellipse;whiteSpace=wrap;html=1;aspect=fixed;fillColor=#E0AE58;" parent="1" vertex="1">
          <mxGeometry x="570" y="420" width="40" height="40" as="geometry" />
        </mxCell>
        <mxCell id="37whbqH-QApnZtkLAOa3-47" value="" style="ellipse;whiteSpace=wrap;html=1;aspect=fixed;fillColor=#E0AE58;" parent="1" vertex="1">
          <mxGeometry x="639" y="469" width="40" height="40" as="geometry" />
        </mxCell>
        <mxCell id="37whbqH-QApnZtkLAOa3-48" value="" style="ellipse;whiteSpace=wrap;html=1;aspect=fixed;rotation=-75;fillColor=#E0AE58;" parent="1" vertex="1">
          <mxGeometry x="155" y="484" width="40" height="40" as="geometry" />
        </mxCell>
        <mxCell id="37whbqH-QApnZtkLAOa3-54" value="" style="group" parent="1" vertex="1" connectable="0">
          <mxGeometry x="405" y="188.5" width="179" height="143" as="geometry" />
        </mxCell>
        <mxCell id="37whbqH-QApnZtkLAOa3-50" value="" style="endArrow=classic;html=1;rounded=0;strokeWidth=5;strokeColor=#FFFF66;" parent="37whbqH-QApnZtkLAOa3-54" edge="1">
          <mxGeometry width="50" height="50" relative="1" as="geometry">
            <mxPoint y="141.79324894514767" as="sourcePoint" />
            <mxPoint as="targetPoint" />
          </mxGeometry>
        </mxCell>
        <mxCell id="37whbqH-QApnZtkLAOa3-51" value="" style="endArrow=classic;html=1;rounded=0;strokeWidth=5;strokeColor=#FFFF66;" parent="37whbqH-QApnZtkLAOa3-54" edge="1">
          <mxGeometry width="50" height="50" relative="1" as="geometry">
            <mxPoint x="0.685823754789272" y="141.18987341772151" as="sourcePoint" />
            <mxPoint x="179" y="143" as="targetPoint" />
          </mxGeometry>
        </mxCell>
        <mxCell id="37whbqH-QApnZtkLAOa3-55" value="&lt;b&gt;&lt;font color=&quot;#ffffff&quot; style=&quot;font-size: 19px;&quot;&gt;y&lt;/font&gt;&lt;/b&gt;" style="text;html=1;strokeColor=none;fillColor=none;align=center;verticalAlign=middle;whiteSpace=wrap;rounded=0;" parent="1" vertex="1">
          <mxGeometry x="380" y="151" width="60" height="30" as="geometry" />
        </mxCell>
        <mxCell id="37whbqH-QApnZtkLAOa3-56" value="&lt;b&gt;&lt;font color=&quot;#ffffff&quot; style=&quot;font-size: 19px;&quot;&gt;x&lt;/font&gt;&lt;/b&gt;" style="text;html=1;strokeColor=none;fillColor=none;align=center;verticalAlign=middle;whiteSpace=wrap;rounded=0;" parent="1" vertex="1">
          <mxGeometry x="570" y="317" width="60" height="30" as="geometry" />
        </mxCell>
        <mxCell id="37whbqH-QApnZtkLAOa3-57" value="&lt;b&gt;&lt;font color=&quot;#ffffff&quot; style=&quot;font-size: 34px;&quot;&gt;3&lt;/font&gt;&lt;/b&gt;" style="text;html=1;strokeColor=none;fillColor=none;align=center;verticalAlign=middle;whiteSpace=wrap;rounded=0;" parent="1" vertex="1">
          <mxGeometry x="110" y="91" width="60" height="30" as="geometry" />
        </mxCell>
        <mxCell id="37whbqH-QApnZtkLAOa3-58" value="&lt;b&gt;&lt;font color=&quot;#ffffff&quot; style=&quot;font-size: 34px;&quot;&gt;1&lt;/font&gt;&lt;/b&gt;" style="text;html=1;strokeColor=none;fillColor=none;align=center;verticalAlign=middle;whiteSpace=wrap;rounded=0;" parent="1" vertex="1">
          <mxGeometry x="630" y="96" width="60" height="30" as="geometry" />
        </mxCell>
        <mxCell id="37whbqH-QApnZtkLAOa3-59" value="&lt;b&gt;&lt;font color=&quot;#ffffff&quot; style=&quot;font-size: 34px;&quot;&gt;4&lt;/font&gt;&lt;/b&gt;" style="text;html=1;strokeColor=none;fillColor=none;align=center;verticalAlign=middle;whiteSpace=wrap;rounded=0;" parent="1" vertex="1">
          <mxGeometry x="140" y="537" width="60" height="30" as="geometry" />
        </mxCell>
        <mxCell id="37whbqH-QApnZtkLAOa3-60" value="&lt;b&gt;&lt;font color=&quot;#ffffff&quot; style=&quot;font-size: 34px;&quot;&gt;2&lt;/font&gt;&lt;/b&gt;" style="text;html=1;strokeColor=none;fillColor=none;align=center;verticalAlign=middle;whiteSpace=wrap;rounded=0;" parent="1" vertex="1">
          <mxGeometry x="636" y="520" width="60" height="30" as="geometry" />
        </mxCell>
      </root>
    </mxGraphModel>
  </diagram>
  <diagram id="K29esDkzR51HviG-hFME" name="Page-2">
    <mxGraphModel dx="657" dy="1063" grid="1" gridSize="10" guides="1" tooltips="1" connect="1" arrows="1" fold="1" page="1" pageScale="1" pageWidth="850" pageHeight="1100" math="0" shadow="0">
      <root>
        <mxCell id="0" />
        <mxCell id="1" parent="0" />
        <mxCell id="9RzMT6ujU4fkM5Yi0jDK-1" value="" style="rounded=0;whiteSpace=wrap;html=1;fillColor=#000000;" vertex="1" parent="1">
          <mxGeometry x="300" y="260" width="220" height="130" as="geometry" />
        </mxCell>
        <mxCell id="9RzMT6ujU4fkM5Yi0jDK-2" value="" style="rounded=0;whiteSpace=wrap;html=1;" vertex="1" parent="1">
          <mxGeometry x="320" y="280" width="180" height="90" as="geometry" />
        </mxCell>
        <mxCell id="9RzMT6ujU4fkM5Yi0jDK-3" value="" style="rounded=0;whiteSpace=wrap;html=1;rotation=35;" vertex="1" parent="1">
          <mxGeometry x="500" y="421.47" width="160" height="20" as="geometry" />
        </mxCell>
        <mxCell id="9RzMT6ujU4fkM5Yi0jDK-4" value="" style="ellipse;whiteSpace=wrap;html=1;aspect=fixed;" vertex="1" parent="1">
          <mxGeometry x="500" y="370" width="40" height="40" as="geometry" />
        </mxCell>
        <mxCell id="9RzMT6ujU4fkM5Yi0jDK-5" value="" style="ellipse;whiteSpace=wrap;html=1;aspect=fixed;" vertex="1" parent="1">
          <mxGeometry x="570" y="420" width="40" height="40" as="geometry" />
        </mxCell>
        <mxCell id="9RzMT6ujU4fkM5Yi0jDK-6" value="" style="ellipse;whiteSpace=wrap;html=1;aspect=fixed;" vertex="1" parent="1">
          <mxGeometry x="639" y="469" width="40" height="40" as="geometry" />
        </mxCell>
        <mxCell id="9RzMT6ujU4fkM5Yi0jDK-7" value="" style="rounded=0;whiteSpace=wrap;html=1;rotation=-40;" vertex="1" parent="1">
          <mxGeometry x="499" y="208" width="160" height="20" as="geometry" />
        </mxCell>
        <mxCell id="9RzMT6ujU4fkM5Yi0jDK-8" value="" style="ellipse;whiteSpace=wrap;html=1;aspect=fixed;rotation=-75;" vertex="1" parent="1">
          <mxGeometry x="505" y="245" width="40" height="40" as="geometry" />
        </mxCell>
        <mxCell id="9RzMT6ujU4fkM5Yi0jDK-9" value="" style="ellipse;whiteSpace=wrap;html=1;aspect=fixed;rotation=-75;" vertex="1" parent="1">
          <mxGeometry x="570" y="191" width="40" height="40" as="geometry" />
        </mxCell>
        <mxCell id="9RzMT6ujU4fkM5Yi0jDK-10" value="" style="ellipse;whiteSpace=wrap;html=1;aspect=fixed;rotation=-75;" vertex="1" parent="1">
          <mxGeometry x="634" y="136" width="40" height="40" as="geometry" />
        </mxCell>
        <mxCell id="9RzMT6ujU4fkM5Yi0jDK-11" value="" style="rounded=0;whiteSpace=wrap;html=1;rotation=35;" vertex="1" parent="1">
          <mxGeometry x="130" y="192.47000000000003" width="160" height="20" as="geometry" />
        </mxCell>
        <mxCell id="9RzMT6ujU4fkM5Yi0jDK-12" value="" style="ellipse;whiteSpace=wrap;html=1;aspect=fixed;" vertex="1" parent="1">
          <mxGeometry x="130" y="141" width="40" height="40" as="geometry" />
        </mxCell>
        <mxCell id="9RzMT6ujU4fkM5Yi0jDK-13" value="" style="ellipse;whiteSpace=wrap;html=1;aspect=fixed;" vertex="1" parent="1">
          <mxGeometry x="200" y="191" width="40" height="40" as="geometry" />
        </mxCell>
        <mxCell id="9RzMT6ujU4fkM5Yi0jDK-14" value="" style="ellipse;whiteSpace=wrap;html=1;aspect=fixed;" vertex="1" parent="1">
          <mxGeometry x="269" y="240" width="40" height="40" as="geometry" />
        </mxCell>
        <mxCell id="9RzMT6ujU4fkM5Yi0jDK-15" value="" style="rounded=0;whiteSpace=wrap;html=1;rotation=-40;" vertex="1" parent="1">
          <mxGeometry x="149" y="447" width="160" height="20" as="geometry" />
        </mxCell>
        <mxCell id="9RzMT6ujU4fkM5Yi0jDK-16" value="" style="ellipse;whiteSpace=wrap;html=1;aspect=fixed;rotation=-75;" vertex="1" parent="1">
          <mxGeometry x="155" y="484" width="40" height="40" as="geometry" />
        </mxCell>
        <mxCell id="9RzMT6ujU4fkM5Yi0jDK-17" value="" style="ellipse;whiteSpace=wrap;html=1;aspect=fixed;rotation=-75;fillColor=#000000;" vertex="1" parent="1">
          <mxGeometry x="220" y="430" width="40" height="40" as="geometry" />
        </mxCell>
        <mxCell id="9RzMT6ujU4fkM5Yi0jDK-18" value="" style="ellipse;whiteSpace=wrap;html=1;aspect=fixed;rotation=-75;fillColor=#E0AE58;" vertex="1" parent="1">
          <mxGeometry x="284" y="375" width="40" height="40" as="geometry" />
        </mxCell>
        <mxCell id="9RzMT6ujU4fkM5Yi0jDK-19" value="" style="ellipse;whiteSpace=wrap;html=1;aspect=fixed;" vertex="1" parent="1">
          <mxGeometry x="130" y="141" width="40" height="40" as="geometry" />
        </mxCell>
        <mxCell id="9RzMT6ujU4fkM5Yi0jDK-20" value="" style="ellipse;whiteSpace=wrap;html=1;aspect=fixed;" vertex="1" parent="1">
          <mxGeometry x="200" y="191" width="40" height="40" as="geometry" />
        </mxCell>
        <mxCell id="9RzMT6ujU4fkM5Yi0jDK-21" value="" style="ellipse;whiteSpace=wrap;html=1;aspect=fixed;" vertex="1" parent="1">
          <mxGeometry x="269" y="240" width="40" height="40" as="geometry" />
        </mxCell>
        <mxCell id="9RzMT6ujU4fkM5Yi0jDK-22" value="" style="ellipse;whiteSpace=wrap;html=1;aspect=fixed;rotation=-75;" vertex="1" parent="1">
          <mxGeometry x="505" y="245" width="40" height="40" as="geometry" />
        </mxCell>
        <mxCell id="9RzMT6ujU4fkM5Yi0jDK-23" value="" style="ellipse;whiteSpace=wrap;html=1;aspect=fixed;rotation=-75;" vertex="1" parent="1">
          <mxGeometry x="570" y="191" width="40" height="40" as="geometry" />
        </mxCell>
        <mxCell id="9RzMT6ujU4fkM5Yi0jDK-24" value="" style="ellipse;whiteSpace=wrap;html=1;aspect=fixed;rotation=-75;" vertex="1" parent="1">
          <mxGeometry x="634" y="136" width="40" height="40" as="geometry" />
        </mxCell>
        <mxCell id="9RzMT6ujU4fkM5Yi0jDK-25" value="" style="ellipse;whiteSpace=wrap;html=1;aspect=fixed;" vertex="1" parent="1">
          <mxGeometry x="500" y="370" width="40" height="40" as="geometry" />
        </mxCell>
        <mxCell id="9RzMT6ujU4fkM5Yi0jDK-26" value="" style="ellipse;whiteSpace=wrap;html=1;aspect=fixed;" vertex="1" parent="1">
          <mxGeometry x="570" y="420" width="40" height="40" as="geometry" />
        </mxCell>
        <mxCell id="9RzMT6ujU4fkM5Yi0jDK-27" value="" style="ellipse;whiteSpace=wrap;html=1;aspect=fixed;" vertex="1" parent="1">
          <mxGeometry x="639" y="469" width="40" height="40" as="geometry" />
        </mxCell>
        <mxCell id="9RzMT6ujU4fkM5Yi0jDK-28" value="" style="ellipse;whiteSpace=wrap;html=1;aspect=fixed;rotation=-75;" vertex="1" parent="1">
          <mxGeometry x="155" y="484" width="40" height="40" as="geometry" />
        </mxCell>
        <mxCell id="9RzMT6ujU4fkM5Yi0jDK-29" value="" style="ellipse;whiteSpace=wrap;html=1;aspect=fixed;fillColor=#E0AE58;" vertex="1" parent="1">
          <mxGeometry x="130" y="141" width="40" height="40" as="geometry" />
        </mxCell>
        <mxCell id="9RzMT6ujU4fkM5Yi0jDK-30" value="" style="ellipse;whiteSpace=wrap;html=1;aspect=fixed;fillColor=#E0AE58;" vertex="1" parent="1">
          <mxGeometry x="200" y="191" width="40" height="40" as="geometry" />
        </mxCell>
        <mxCell id="9RzMT6ujU4fkM5Yi0jDK-31" value="" style="ellipse;whiteSpace=wrap;html=1;aspect=fixed;fillColor=#E0AE58;" vertex="1" parent="1">
          <mxGeometry x="269" y="240" width="40" height="40" as="geometry" />
        </mxCell>
        <mxCell id="9RzMT6ujU4fkM5Yi0jDK-32" value="" style="ellipse;whiteSpace=wrap;html=1;aspect=fixed;rotation=-75;fillColor=#E0AE58;" vertex="1" parent="1">
          <mxGeometry x="505" y="245" width="40" height="40" as="geometry" />
        </mxCell>
        <mxCell id="9RzMT6ujU4fkM5Yi0jDK-33" value="" style="ellipse;whiteSpace=wrap;html=1;aspect=fixed;rotation=-75;fillColor=#E0AE58;" vertex="1" parent="1">
          <mxGeometry x="570" y="191" width="40" height="40" as="geometry" />
        </mxCell>
        <mxCell id="9RzMT6ujU4fkM5Yi0jDK-34" value="" style="ellipse;whiteSpace=wrap;html=1;aspect=fixed;rotation=-75;fillColor=#E0AE58;" vertex="1" parent="1">
          <mxGeometry x="634" y="136" width="40" height="40" as="geometry" />
        </mxCell>
        <mxCell id="9RzMT6ujU4fkM5Yi0jDK-35" value="" style="ellipse;whiteSpace=wrap;html=1;aspect=fixed;fillColor=#E0AE58;" vertex="1" parent="1">
          <mxGeometry x="500" y="370" width="40" height="40" as="geometry" />
        </mxCell>
        <mxCell id="9RzMT6ujU4fkM5Yi0jDK-36" value="" style="ellipse;whiteSpace=wrap;html=1;aspect=fixed;fillColor=#E0AE58;" vertex="1" parent="1">
          <mxGeometry x="570" y="420" width="40" height="40" as="geometry" />
        </mxCell>
        <mxCell id="9RzMT6ujU4fkM5Yi0jDK-37" value="" style="ellipse;whiteSpace=wrap;html=1;aspect=fixed;fillColor=#E0AE58;" vertex="1" parent="1">
          <mxGeometry x="639" y="469" width="40" height="40" as="geometry" />
        </mxCell>
        <mxCell id="9RzMT6ujU4fkM5Yi0jDK-38" value="" style="ellipse;whiteSpace=wrap;html=1;aspect=fixed;rotation=-75;fillColor=#000000;" vertex="1" parent="1">
          <mxGeometry x="155" y="484" width="40" height="40" as="geometry" />
        </mxCell>
        <mxCell id="9RzMT6ujU4fkM5Yi0jDK-42" value="&lt;b style=&quot;font-size: 27px;&quot;&gt;&lt;font style=&quot;font-size: 27px;&quot;&gt;y&lt;/font&gt;&lt;/b&gt;" style="text;html=1;strokeColor=none;fillColor=none;align=center;verticalAlign=middle;whiteSpace=wrap;rounded=0;fontColor=#000000;fontSize=27;" vertex="1" parent="1">
          <mxGeometry x="380" y="151" width="60" height="30" as="geometry" />
        </mxCell>
        <mxCell id="9RzMT6ujU4fkM5Yi0jDK-43" value="&lt;b style=&quot;font-size: 27px;&quot;&gt;&lt;font style=&quot;font-size: 27px;&quot;&gt;x&lt;/font&gt;&lt;/b&gt;" style="text;html=1;strokeColor=none;fillColor=none;align=center;verticalAlign=middle;whiteSpace=wrap;rounded=0;fontColor=#000000;fontSize=27;" vertex="1" parent="1">
          <mxGeometry x="570" y="317" width="60" height="30" as="geometry" />
        </mxCell>
        <mxCell id="9RzMT6ujU4fkM5Yi0jDK-44" value="&lt;b&gt;&lt;font style=&quot;font-size: 34px;&quot;&gt;3&lt;/font&gt;&lt;/b&gt;" style="text;html=1;strokeColor=none;fillColor=none;align=center;verticalAlign=middle;whiteSpace=wrap;rounded=0;fontColor=#000000;" vertex="1" parent="1">
          <mxGeometry x="110" y="91" width="60" height="30" as="geometry" />
        </mxCell>
        <mxCell id="9RzMT6ujU4fkM5Yi0jDK-45" value="&lt;b&gt;&lt;font style=&quot;font-size: 34px;&quot;&gt;1&lt;/font&gt;&lt;/b&gt;" style="text;html=1;strokeColor=none;fillColor=none;align=center;verticalAlign=middle;whiteSpace=wrap;rounded=0;fontColor=#000000;" vertex="1" parent="1">
          <mxGeometry x="630" y="96" width="60" height="30" as="geometry" />
        </mxCell>
        <mxCell id="9RzMT6ujU4fkM5Yi0jDK-46" value="&lt;b&gt;&lt;font style=&quot;font-size: 34px;&quot;&gt;4&lt;/font&gt;&lt;/b&gt;" style="text;html=1;strokeColor=none;fillColor=none;align=center;verticalAlign=middle;whiteSpace=wrap;rounded=0;fontColor=#000000;" vertex="1" parent="1">
          <mxGeometry x="140" y="537" width="60" height="30" as="geometry" />
        </mxCell>
        <mxCell id="9RzMT6ujU4fkM5Yi0jDK-47" value="&lt;b&gt;&lt;font style=&quot;font-size: 34px;&quot;&gt;2&lt;/font&gt;&lt;/b&gt;" style="text;html=1;strokeColor=none;fillColor=none;align=center;verticalAlign=middle;whiteSpace=wrap;rounded=0;fontColor=#000000;" vertex="1" parent="1">
          <mxGeometry x="636" y="520" width="60" height="30" as="geometry" />
        </mxCell>
        <mxCell id="9RzMT6ujU4fkM5Yi0jDK-48" value="" style="ellipse;whiteSpace=wrap;html=1;aspect=fixed;fillColor=#E0AE58;" vertex="1" parent="1">
          <mxGeometry x="269" y="240" width="40" height="40" as="geometry" />
        </mxCell>
        <mxCell id="9RzMT6ujU4fkM5Yi0jDK-49" value="" style="ellipse;whiteSpace=wrap;html=1;aspect=fixed;fillColor=#E0AE58;" vertex="1" parent="1">
          <mxGeometry x="200" y="191" width="40" height="40" as="geometry" />
        </mxCell>
        <mxCell id="9RzMT6ujU4fkM5Yi0jDK-50" value="" style="ellipse;whiteSpace=wrap;html=1;aspect=fixed;fillColor=#000000;" vertex="1" parent="1">
          <mxGeometry x="269" y="240" width="40" height="40" as="geometry" />
        </mxCell>
        <mxCell id="9RzMT6ujU4fkM5Yi0jDK-51" value="" style="ellipse;whiteSpace=wrap;html=1;aspect=fixed;fillColor=#000000;" vertex="1" parent="1">
          <mxGeometry x="200" y="191" width="40" height="40" as="geometry" />
        </mxCell>
        <mxCell id="9RzMT6ujU4fkM5Yi0jDK-52" value="" style="ellipse;whiteSpace=wrap;html=1;aspect=fixed;fillColor=#000000;" vertex="1" parent="1">
          <mxGeometry x="130" y="141" width="40" height="40" as="geometry" />
        </mxCell>
        <mxCell id="9RzMT6ujU4fkM5Yi0jDK-53" value="" style="ellipse;whiteSpace=wrap;html=1;aspect=fixed;rotation=-75;fillColor=#000000;" vertex="1" parent="1">
          <mxGeometry x="505" y="245" width="40" height="40" as="geometry" />
        </mxCell>
        <mxCell id="9RzMT6ujU4fkM5Yi0jDK-54" value="" style="ellipse;whiteSpace=wrap;html=1;aspect=fixed;rotation=-75;fillColor=#000000;" vertex="1" parent="1">
          <mxGeometry x="570" y="191" width="40" height="40" as="geometry" />
        </mxCell>
        <mxCell id="9RzMT6ujU4fkM5Yi0jDK-55" value="" style="ellipse;whiteSpace=wrap;html=1;aspect=fixed;rotation=-75;fillColor=#000000;" vertex="1" parent="1">
          <mxGeometry x="634" y="136" width="40" height="40" as="geometry" />
        </mxCell>
        <mxCell id="9RzMT6ujU4fkM5Yi0jDK-56" value="" style="ellipse;whiteSpace=wrap;html=1;aspect=fixed;fillColor=#000000;" vertex="1" parent="1">
          <mxGeometry x="639" y="469" width="40" height="40" as="geometry" />
        </mxCell>
        <mxCell id="9RzMT6ujU4fkM5Yi0jDK-57" value="" style="ellipse;whiteSpace=wrap;html=1;aspect=fixed;fillColor=#000000;" vertex="1" parent="1">
          <mxGeometry x="570" y="420" width="40" height="40" as="geometry" />
        </mxCell>
        <mxCell id="9RzMT6ujU4fkM5Yi0jDK-58" value="" style="ellipse;whiteSpace=wrap;html=1;aspect=fixed;fillColor=#000000;" vertex="1" parent="1">
          <mxGeometry x="500" y="370" width="40" height="40" as="geometry" />
        </mxCell>
        <mxCell id="9RzMT6ujU4fkM5Yi0jDK-59" value="" style="ellipse;whiteSpace=wrap;html=1;aspect=fixed;rotation=-75;fillColor=#000000;" vertex="1" parent="1">
          <mxGeometry x="284" y="375" width="40" height="40" as="geometry" />
        </mxCell>
        <mxCell id="9RzMT6ujU4fkM5Yi0jDK-40" value="" style="endArrow=classic;html=1;rounded=0;strokeWidth=5;strokeColor=#FF0000;" edge="1" parent="1">
          <mxGeometry width="50" height="50" relative="1" as="geometry">
            <mxPoint x="405" y="330.29324894514764" as="sourcePoint" />
            <mxPoint x="405" y="188.5" as="targetPoint" />
          </mxGeometry>
        </mxCell>
        <mxCell id="9RzMT6ujU4fkM5Yi0jDK-41" value="" style="endArrow=classic;html=1;rounded=0;strokeWidth=5;strokeColor=#FF0000;" edge="1" parent="1">
          <mxGeometry width="50" height="50" relative="1" as="geometry">
            <mxPoint x="405.6858237547893" y="329.6898734177215" as="sourcePoint" />
            <mxPoint x="584" y="331.5" as="targetPoint" />
          </mxGeometry>
        </mxCell>
      </root>
    </mxGraphModel>
  </diagram>
</mxfile>
